<svg width="151" height="28" viewBox="0 0 151 28" fill="none" xmlns="http://www.w3.org/2000/svg">
  <rect width="28" height="28" rx="2" fill="#FF651C"></rect>
  <path d="M14.14 19.635C14.14 19.789 14.259 19.915 14.4025 19.915H20.8775C21.021 19.915 21.14 19.789 21.14 19.635V17.955C21.14 17.801 21.021 17.675 20.8775 17.675H14.4025C14.259 17.675 14.14 17.801 14.14 17.955V19.635ZM7.3185 19.8485L14.0385 14.2135C14.1715 14.1015 14.1715 13.895 14.0385 13.783L7.3185 8.1515C7.1365 7.9975 6.86 8.127 6.86 8.365V10.5595C6.86 10.6435 6.895 10.7205 6.9615 10.773L10.8045 14L6.9615 17.227C6.895 17.2795 6.86 17.3565 6.86 17.4405V19.635C6.86 19.873 7.1365 20.0025 7.3185 19.8485Z" fill="white"></path>
  <rect x="2.52" y="2.52" width="22.96" height="22.96" stroke="white" stroke-width="2"></rect>

  <text x="36" y="22" font-family="Jost, Arial, sans-serif" font-size="27" font-weight="700" letter-spacing="1.5" fill="#373737">
    MEGHA
  </text>
</svg>